# xmcd
#
# Track frame offsets:
#	183
#	14760
#	30165
#	48450
#	74723
#	97350
#	118278
#	139915
#	159575
#	174428
#	196140
#	208738
#	219748
#	237530
#	260450
#	280328
#	302310
#	321585
#
# Disc length: 4611 seconds
#
# Revision: 0
# Processed by: cddbd v1.5PL3 Copyright (c) Steve Scherf et al.
# Submitted via: dBpowerAMP V4.0
#
DISCID=1e120112
DTITLE=Muddy Waters - Rocks Out
DYEAR=1900
DGENRE=Blues
TTITLE0=Let Spend The Night Together
TTITLE1=I'm a Man
TTITLE2=Tom Cat
TTITLE3=The Same Thing
TTITLE4=Screaming and Crying
TTITLE5=I'm the blues
TTITLE6=Rollin and tumblin
TTITLE7=Blues and trouble
TTITLE8=Walkin' throu the park
TTITLE9=20 four hours
TTITLE10=All aboard
TTITLE11=Key to the highway
TTITLE12=I'm goona move
TTITLE13=Who's gonna be your sweet man...
TTITLE14=Young fashioned ways
TTITLE15=I almost lost my mind
TTITLE16=Going down to main street
TTITLE17=Born with nothing
EXTD=
EXTT0=
EXTT1=
EXTT2=
EXTT3=
EXTT4=
EXTT5=
EXTT6=
EXTT7=
EXTT8=
EXTT9=
EXTT10=
EXTT11=
EXTT12=
EXTT13=
EXTT14=
EXTT15=
EXTT16=
EXTT17=
PLAYORDER=
